<svg width="36" height="36" viewBox="0 0 36 36" fill="none" xmlns="http://www.w3.org/2000/svg">
<path d="M21.6375 19.8192C21.6375 20.135 21.4175 20.4008 21.1658 20.5408L19.8625 21.2658L20.4408 22.8433C20.5525 23.1492 20.4517 23.4917 20.1917 23.6875C19.9258 23.8875 19.5592 23.885 19.2958 23.6817L17.9992 22.6792L16.7025 23.6817C16.4392 23.885 16.0725 23.8875 15.8067 23.6875C15.5467 23.4917 15.4458 23.1492 15.5575 22.8433L16.1358 21.2658L14.8325 20.5408C14.5808 20.4008 14.3608 20.135 14.3608 19.8192C14.3608 19.5517 14.5933 19.2558 14.97 19.2558H16.8425L17.3392 17.3533C17.4175 17.0517 17.6883 16.8417 17.9992 16.8358C18.31 16.8417 18.5808 17.0517 18.6592 17.3533L19.1558 19.2558H21.0283C21.405 19.2558 21.6375 19.5508 21.6375 19.8192ZM23.4167 9.66667H23V9.25C23 8.55917 22.4408 8 21.75 8C21.0592 8 20.5 8.55917 20.5 9.25V9.66667H15.5V9.25C15.5 8.55917 14.9408 8 14.25 8C13.5592 8 13 8.55917 13 9.25V9.66667H12.5833C10.0558 9.66667 8 11.7225 8 14.25V23.4167C8 25.9442 10.0558 28 12.5833 28H23.4167C25.9442 28 28 25.9442 28 23.4167V14.25C28 11.7225 25.9442 9.66667 23.4167 9.66667ZM23.4167 25.5H12.5833C11.435 25.5 10.5 24.565 10.5 23.4167V15.5H25.5V23.4167C25.5 24.565 24.565 25.5 23.4167 25.5Z" fill="#1D1E21"/>
</svg>
