<svg width="36" height="36" viewBox="0 0 36 36" fill="none" xmlns="http://www.w3.org/2000/svg">
<path d="M23.8333 11.3333H22.9167C22.7233 10.3928 22.2115 9.54779 21.4677 8.9406C20.7239 8.33341 19.7935 8.00121 18.8333 8H17.1667C16.2065 8.00121 15.2761 8.33341 14.5323 8.9406C13.7885 9.54779 13.2767 10.3928 13.0833 11.3333H12.1667C11.062 11.3347 10.003 11.7741 9.22185 12.5552C8.44074 13.3363 8.00132 14.3953 8 15.5V18H28V15.5C27.9987 14.3953 27.5593 13.3363 26.7782 12.5552C25.997 11.7741 24.938 11.3347 23.8333 11.3333ZM14.82 11.3333C14.9917 10.8476 15.3094 10.4267 15.7294 10.1284C16.1495 9.83007 16.6515 9.6688 17.1667 9.66667H18.8333C19.3486 9.6688 19.8505 9.83007 20.2706 10.1284C20.6906 10.4267 21.0083 10.8476 21.18 11.3333H14.82Z" fill="#1D1E21"/>
<path d="M18.8333 20.5C18.8333 20.721 18.7455 20.933 18.5893 21.0893C18.433 21.2455 18.221 21.3333 18 21.3333C17.779 21.3333 17.567 21.2455 17.4107 21.0893C17.2545 20.933 17.1667 20.721 17.1667 20.5V19.6667H8V23.8333C8.00132 24.938 8.44073 25.997 9.22185 26.7782C10.003 27.5593 11.062 27.9987 12.1667 28H23.8333C24.938 27.9987 25.997 27.5593 26.7782 26.7782C27.5593 25.997 27.9987 24.938 28 23.8333V19.6667H18.8333V20.5Z" fill="#1D1E21"/>
</svg>
