<svg width="31" height="36" viewBox="0 0 31 36" fill="none" xmlns="http://www.w3.org/2000/svg">
<path d="M15.973 8.00156C16.3698 8.07968 16.7746 8.13072 17.1617 8.23958C19.5468 8.91663 21.1307 11.0067 20.9915 13.2769C20.8518 15.5628 18.9976 17.4919 16.5353 17.9122C13.4482 18.4413 10.4957 16.5226 10.0554 13.7024C9.62018 10.916 11.7985 8.35988 14.885 8.03333C14.9335 8.02554 14.9814 8.01439 15.0281 8L15.973 8.00156Z" fill="#1D1E21"/>
<path d="M8 27.9985C8 26.6737 8 25.3492 8 24.0251C8 22.0514 9.36257 20.4523 11.3767 20.0693C11.6453 20.0224 11.9179 20.0005 12.1909 20.0038C14.3972 19.9987 16.6032 19.9987 18.8089 20.0038C20.907 20.0083 22.5633 21.3379 22.9409 23.3186C22.982 23.5588 23.001 23.8021 22.9977 24.0456C23.0029 25.3638 22.9977 26.6819 22.9977 28L8 27.9985Z" fill="#1D1E21"/>
</svg>
