<svg xmlns="http://www.w3.org/2000/svg" viewBox="0 0 749.2 749.2"><defs><style>.cls-1{fill:#2e71eb;}.cls-2{fill:#fff;}.cls-3{fill:#ff7f00;}</style></defs><g id="Layer_2" data-name="Layer 2"><g id="Calque_1" data-name="Calque 1"><circle class="cls-1" cx="374.6" cy="374.6" r="374.6"/><path class="cls-2" d="M602.4,266.46V528.57H422.2l-16.39-32.76L389.43,463l-16.38-32.76-16.38-32.77,16.38-32.76L389.43,332l16.38-32.77,16.39-32.76ZM438.58,299.22,422.2,332l-16.39,32.76-16.38,32.76,16.38,32.77L422.2,463l16.38,32.77H569.64V299.22Z"/><path class="cls-2" d="M324.76,266.46l16.39,32.76L357.53,332l16.38,32.76,16.38,32.76-16.38,32.77L357.53,463l-16.38,32.77-16.39,32.76H144.56V266.46ZM177.33,299.22V495.81h131L324.76,463l16.39-32.76,16.38-32.77-16.38-32.76L324.76,332l-16.38-32.77Z"/><rect class="cls-3" x="612.89" y="170.06" width="33.11" height="31.56"/></g></g></svg>