<svg width="30" height="20" viewBox="0 0 30 20" fill="none" xmlns="http://www.w3.org/2000/svg">
<path d="M23.75 0H6.25C2.79875 0 0 2.7975 0 6.25V13.75C0 17.2013 2.79875 20 6.25 20H23.75C27.1963 20 30 17.1963 30 13.75V6.25C30 2.80375 27.1963 0 23.75 0ZM10.15 15C9.7425 15 9.38875 14.7188 9.2975 14.3212L8.96625 12.875H5.955L5.6125 14.3263C5.51875 14.7213 5.1675 15 4.76125 15C4.1975 15 3.78125 14.4738 3.91 13.925L5.67625 6.43375C5.9275 5.35125 7.0975 4.67625 8.24625 5.1575C8.795 5.3875 9.16375 5.915 9.29875 6.495L11.0025 13.93C11.1275 14.4775 10.7125 15 10.15 15ZM27.5 13.75C27.5 15.8175 25.8175 17.5 23.75 17.5H15V2.5H23.75C25.8175 2.5 27.5 4.1825 27.5 6.25V13.75ZM25.625 7.02V7.04625C25.625 7.47125 25.28 7.81625 24.855 7.81625H24.46C24.3088 9.41 23.6888 11.23 22.4513 12.6488C23.1287 13.06 23.9412 13.3538 24.9312 13.4475C25.325 13.485 25.625 13.8175 25.625 14.2138V14.24C25.625 14.6975 25.23 15.05 24.775 15.0062C23.3538 14.87 22.2012 14.395 21.265 13.7288C20.3237 14.4012 19.1575 14.8725 17.725 15.0062C17.27 15.0487 16.8763 14.6962 16.8763 14.2387V14.2125C16.8763 13.8112 17.1863 13.4825 17.5863 13.445C18.5713 13.3512 19.3837 13.0613 20.0575 12.6513C19.6437 12.1775 19.2987 11.6588 19.0163 11.1175C18.75 10.6075 19.1275 9.9975 19.7025 9.9975H19.715C19.9975 9.9975 20.2612 10.15 20.3913 10.4C20.6225 10.84 20.9113 11.2637 21.2575 11.6525C22.28 10.5025 22.7475 9.0175 22.8862 7.81375H17.6475C17.2225 7.81375 16.8775 7.46875 16.8775 7.04375V7.0175C16.8775 6.5925 17.2225 6.2475 17.6475 6.2475H20.4688V5.7675C20.4688 5.3425 20.8137 4.9975 21.2387 4.9975H21.265C21.69 4.9975 22.035 5.3425 22.035 5.7675V6.2475H24.8563C25.2812 6.2475 25.6262 6.5925 25.6262 7.0175L25.625 7.02ZM7.58125 6.82875L8.565 11.125H6.36875L7.3825 6.82875C7.39375 6.7825 7.43375 6.75 7.48125 6.75C7.52875 6.75 7.57125 6.7825 7.58125 6.82875Z" fill="#2E71EB"/>
</svg>
