<svg width="21" height="20" viewBox="0 0 21 20" fill="none" xmlns="http://www.w3.org/2000/svg">
<path d="M17.5689 18.0481H16.9897C16.8607 18.0485 16.7349 18.008 16.6305 17.9323C16.526 17.8565 16.4484 17.7496 16.4086 17.6269L16.2303 17.0775C16.19 16.9549 16.1896 16.8226 16.2294 16.6998C16.2691 16.577 16.3469 16.4701 16.4515 16.3944L16.9188 16.056C17.0229 15.98 17.1483 15.9391 17.2771 15.9391C17.4059 15.9391 17.5313 15.98 17.6353 16.056L18.103 16.3955C18.2076 16.4711 18.2855 16.5779 18.3253 16.7007C18.3651 16.8234 18.3649 16.9556 18.3245 17.0782L18.1473 17.628C18.1072 17.7504 18.0294 17.857 17.9251 17.9324C17.8207 18.0079 17.6951 18.0484 17.5663 18.0481H17.5689ZM20.2052 17.0724C20.2053 17.6513 20.0337 18.2172 19.7121 18.6986C19.3906 19.1799 18.9335 19.5551 18.3987 19.7767C17.8639 19.9983 17.2754 20.0563 16.7076 19.9434C16.1398 19.8305 15.6182 19.5518 15.2089 19.1425C14.7995 18.7332 14.5207 18.2117 14.4078 17.6439C14.2948 17.0761 14.3527 16.4876 14.5742 15.9528C14.7958 15.4179 15.1709 14.9608 15.6522 14.6392C16.1336 14.3176 16.6995 14.1459 17.2784 14.1459C18.0545 14.1459 18.7989 14.4542 19.3478 15.003C19.8967 15.5518 20.2051 16.2962 20.2052 17.0724ZM17.2784 19.2675C17.4047 19.2664 17.5307 19.2542 17.6549 19.2312L17.8619 18.554C17.9088 18.4066 18.0013 18.2779 18.1261 18.1865C18.2509 18.0951 18.4015 18.0458 18.5562 18.0456H19.2433C19.3544 17.8236 19.4268 17.5842 19.4572 17.3378L18.9088 16.9722C18.7819 16.8835 18.6864 16.7568 18.6363 16.6103C18.5862 16.4638 18.5839 16.3051 18.6299 16.1573L18.8398 15.5305C18.6653 15.3552 18.4627 15.2104 18.2403 15.102L17.7087 15.4695C17.5838 15.5607 17.4332 15.6098 17.2785 15.6098C17.1239 15.6098 16.9733 15.5607 16.8484 15.4695L16.3342 15.0948C16.1151 15.1994 15.9149 15.3395 15.7416 15.5095L15.9271 16.1573C15.9731 16.3049 15.971 16.4633 15.9212 16.6096C15.8713 16.7559 15.7762 16.8826 15.6497 16.9714L15.105 17.3604C15.1363 17.5987 15.2069 17.8302 15.3138 18.0456H16.0005C16.1552 18.0458 16.3059 18.0951 16.4307 18.1865C16.5556 18.2779 16.6482 18.4065 16.6952 18.554L16.9061 19.233C17.029 19.2549 17.1535 19.2667 17.2784 19.2675Z" fill="#1D1E21"/>
<path d="M19.5741 14.034L13.7589 2.40829C13.5286 1.91264 13.203 1.46719 12.8006 1.09739C12.3982 0.727584 11.9269 0.440663 11.4136 0.253008C10.9003 0.0653542 10.3551 -0.0193581 9.80903 0.00370844C9.263 0.026775 8.72686 0.157169 8.23122 0.387444C7.34749 0.797776 6.63579 1.50524 6.22018 2.3865L0.387512 14.0606C0.15733 14.5556 0.0269271 15.0912 0.00374815 15.6367C-0.0194308 16.1822 0.0650693 16.7269 0.252422 17.2397C0.439776 17.7526 0.726312 18.2234 1.09567 18.6255C1.46503 19.0276 1.90997 19.353 2.40509 19.5831C2.93608 19.83 3.51323 19.9619 4.09875 19.9702L7.76096 13.0438C7.90268 12.7516 8.1006 12.4901 8.34341 12.2744C8.58621 12.0587 8.86914 11.893 9.17603 11.7867C9.48292 11.6804 9.80775 11.6356 10.132 11.6549C10.4562 11.6742 10.7734 11.7572 11.0655 11.8992C11.5776 12.148 11.9881 12.5661 12.2275 13.0826L13.8493 16.4598C13.8863 15.785 14.1278 15.1375 14.5417 14.6033C14.9556 14.0691 15.5222 13.6736 16.1664 13.4691C16.8105 13.2647 17.5015 13.2611 18.1477 13.4589C18.7939 13.6566 19.3646 14.0463 19.784 14.5762C19.7266 14.3909 19.6565 14.2097 19.5741 14.034ZM10.7223 13.7886C10.6424 13.6122 10.5018 13.4704 10.3261 13.3891C10.132 13.2988 9.91006 13.2892 9.70889 13.3624C9.50772 13.4356 9.3438 13.5856 9.25308 13.7795L5.97906 19.9702H13.6888L10.7223 13.7886Z" fill="#1D1E21"/>
</svg>
