<svg width="60" height="60" viewBox="0 0 60 60" fill="none" xmlns="http://www.w3.org/2000/svg">
<circle opacity="0.05" cx="30" cy="30" r="30" fill="#2E71EB"/>
<g clip-path="url(#clip0_4886_83543)">
<path d="M29.025 35.8061C28.04 36.7659 27.086 37.7044 26.1165 38.6361C25.9606 38.7866 25.7878 38.9187 25.6017 39.0297C23.3337 40.3456 21.0634 41.6574 18.7909 42.9649C18.0919 43.3682 17.3367 43.0822 17.0798 42.3153C16.9828 42.0177 16.8936 41.7152 16.8093 41.4137C16.6251 40.7593 16.8384 40.3075 17.4172 39.9498C19.5249 38.6477 21.6335 37.3467 23.7189 36.0068C24.1135 35.7528 24.3723 35.2981 24.7301 34.9762C25.5183 34.2685 25.9012 33.425 26.036 32.3479C26.353 29.833 26.8029 27.3337 27.1994 24.8275C27.1966 24.7888 27.1898 24.7505 27.179 24.7131L26.1126 25.2347C25.5706 25.5013 25.0335 25.7776 24.4848 26.0307C24.2705 26.1276 24.2104 26.2343 24.2735 26.4728C24.5013 27.3453 24.7078 28.2305 24.9162 29.1117C25.0801 29.8069 24.7679 30.3614 24.0922 30.5873C23.8634 30.6639 23.6316 30.7357 23.399 30.7967C22.7446 30.9674 22.1212 30.6397 21.9525 29.9853C21.5162 28.2906 21.1071 26.592 20.6921 24.8886C20.6194 24.5978 20.7251 24.4174 20.9927 24.274C23.334 23.0136 25.6686 21.7465 28.0089 20.4929C28.1465 20.4212 28.2988 20.3824 28.4539 20.3795C30.296 20.3591 32.1312 20.3533 33.9694 20.33C34.101 20.3246 34.2322 20.3484 34.3534 20.3999C34.4746 20.4514 34.5829 20.5292 34.6703 20.6277C36.0179 22.015 37.3752 23.3946 38.7422 24.7897C39.2658 24.4242 39.7195 24.1111 40.1713 23.7921C40.6231 23.4731 41.0554 23.159 41.5043 22.8527C42.1452 22.4145 42.848 22.5618 43.2494 23.2153C43.3832 23.4315 43.5102 23.6506 43.6372 23.8726C44.0008 24.5183 43.898 25.0786 43.3037 25.5304C42.3022 26.2905 41.2891 27.0351 40.2808 27.7864C40.0094 27.9891 39.7282 28.1742 39.4694 28.3972C39.1921 28.6299 38.9565 28.6202 38.6618 28.4059C37.2453 27.3744 35.8153 26.3603 34.3902 25.3404C34.2447 25.2357 34.0993 25.1339 33.9132 25.003C33.7105 26.0394 33.5157 27.0312 33.3227 28.023C32.9951 29.706 32.6751 31.391 32.3339 33.0721C32.2747 33.363 32.3271 33.5249 32.5714 33.7043C34.1982 34.8996 35.8066 36.1202 37.4334 37.3166C37.7524 37.5522 37.8464 37.7771 37.7243 38.1717C36.9884 40.4587 36.2797 42.7535 35.5594 45.0454C35.2743 45.9519 34.7082 46.236 33.8046 45.9335C33.5069 45.8365 33.2074 45.7396 32.9107 45.6359C32.1991 45.3896 31.8956 44.8147 32.107 44.0934C32.5685 42.5179 33.027 40.9415 33.506 39.371C33.5864 39.1053 33.5467 38.9696 33.3121 38.8096C31.883 37.8236 30.4734 36.8241 29.025 35.8061Z" fill="#2E71EB"/>
<path d="M28.4267 16.1986C28.4313 15.2332 28.8177 14.3088 29.5017 13.6274C30.1856 12.946 31.1114 12.563 32.0768 12.562C32.5577 12.5643 33.0335 12.6615 33.4768 12.848C33.92 13.0345 34.3221 13.3067 34.66 13.649C34.9978 13.9913 35.2648 14.3969 35.4456 14.8425C35.6263 15.2882 35.7174 15.7652 35.7134 16.2461C35.7037 17.2115 35.3125 18.1339 34.6252 18.8119C33.9379 19.4899 33.0103 19.8686 32.0448 19.8652C31.0799 19.8552 30.1581 19.4642 29.4803 18.7773C28.8025 18.0905 28.4238 17.1635 28.4267 16.1986Z" fill="#2E71EB"/>
<path d="M41.129 39.8204C41.5346 39.8181 41.9366 39.8961 42.3118 40.0501C42.687 40.204 43.0281 40.4308 43.3152 40.7172C43.6023 41.0037 43.8298 41.3442 43.9845 41.7191C44.1393 42.094 44.2183 42.4958 44.2168 42.9014C44.2199 43.3071 44.1428 43.7093 43.9899 44.0851C43.837 44.4609 43.6114 44.8027 43.326 45.091C43.0406 45.3793 42.701 45.6083 42.3268 45.765C41.9526 45.9216 41.5511 46.0028 41.1455 46.0038C40.7372 46.0052 40.3326 45.926 39.955 45.7707C39.5773 45.6154 39.2341 45.3871 38.9448 45.0989C38.6556 44.8107 38.4262 44.4682 38.2696 44.0911C38.113 43.714 38.0324 43.3097 38.0324 42.9014C38.0333 42.4958 38.1141 42.0942 38.2702 41.7198C38.4264 41.3454 38.6547 41.0054 38.9423 40.7193C39.2299 40.4332 39.571 40.2065 39.9462 40.0523C40.3214 39.898 40.7233 39.8192 41.129 39.8204Z" fill="#2E71EB"/>
</g>
<defs>
<clipPath id="clip0_4886_83543">
<rect width="27.4726" height="33.4884" fill="white" transform="translate(16.7442 12.5581)"/>
</clipPath>
</defs>
</svg>
