<svg width="26" height="26" viewBox="0 0 26 26" fill="none" xmlns="http://www.w3.org/2000/svg">
<path d="M25.7395 13.0004C25.7395 19.3135 21.0595 24.5326 14.9803 25.3798C14.4117 25.459 13.8301 25.5 13.2399 25.5C12.5582 25.5 11.8896 25.4453 11.2375 25.3402C5.28634 24.3822 0.740234 19.2214 0.740234 12.9996C0.740234 6.09626 6.33649 0.5 13.2399 0.5C20.1432 0.5 25.7395 6.09626 25.7395 12.9996V13.0004Z" fill="white"/>
<path d="M9.29449 5.11084L6.47656 7.92877V18.0726H9.85807V20.8905L12.676 18.0726H14.9303L20.0026 13.0003V5.11084H9.29521H9.29449ZM18.8747 12.4367L16.6204 14.6911H14.366L12.3938 16.6633V14.6911H9.85807V6.23801H18.8747V12.4367Z" fill="#1D1E21"/>
<path d="M17.1838 8.20996H16.0566V11.5915H17.1838V8.20996Z" fill="#1D1E21"/>
<path d="M14.0842 8.20996H12.957V11.5915H14.0842V8.20996Z" fill="#1D1E21"/>
</svg>
