<svg width="26" height="26" viewBox="0 0 26 26" fill="none" xmlns="http://www.w3.org/2000/svg">
<path d="M25.7395 13.0004C25.7395 19.3135 21.0595 24.5326 14.9803 25.3798C14.4117 25.459 13.8301 25.5 13.2399 25.5C12.5582 25.5 11.8896 25.4453 11.2375 25.3402C5.28635 24.3822 0.740234 19.2214 0.740234 12.9996C0.740234 6.09626 6.33649 0.5 13.2399 0.5C20.1432 0.5 25.7395 6.09626 25.7395 12.9996V13.0004Z" fill="white"/>
<path d="M21.1834 10.3869C21.0848 9.42814 20.871 8.36935 20.085 7.81224C19.4754 7.38038 18.675 7.36454 17.9279 7.36525C16.348 7.36669 14.768 7.36814 13.1881 7.36958C11.6687 7.37102 10.1492 7.37245 8.62979 7.37389C7.99495 7.37389 7.3781 7.32495 6.7886 7.59918C6.28188 7.83527 5.886 8.28369 5.64847 8.7825C5.31738 9.47708 5.24756 10.2631 5.20797 11.0311C5.13455 12.4289 5.14247 13.831 5.23101 15.2274C5.29507 16.2473 5.45845 17.3738 6.24661 18.0237C6.94551 18.5995 7.93161 18.6276 8.83708 18.6283C11.7133 18.6305 14.5895 18.6326 17.4658 18.6355C17.8343 18.6355 18.2194 18.629 18.5951 18.588C19.335 18.5081 20.0397 18.2965 20.5147 17.7488C20.9941 17.1967 21.1172 16.4272 21.1906 15.6995C21.3677 13.9347 21.3655 12.1511 21.1834 10.3869ZM11.5247 15.4757V10.5251L15.8124 13.0004L11.5247 15.4757Z" fill="#1D1E21"/>
</svg>
