<svg width="26" height="26" viewBox="0 0 26 26" fill="none" xmlns="http://www.w3.org/2000/svg">
<path d="M25.7412 13C25.7412 19.3133 21.0611 24.5326 14.9817 25.3798C14.413 25.459 13.8314 25.5 13.2412 25.5C12.5596 25.5 11.8909 25.4453 11.2387 25.3402C5.28745 24.3822 0.741211 19.2212 0.741211 12.9993C0.741211 6.09642 6.33763 0.5 13.2412 0.5C20.1448 0.5 25.7412 6.09642 25.7412 13Z" fill="white"/>
<path d="M17.1557 5.49609H9.32648C7.16349 5.49609 5.4043 7.25528 5.4043 9.41827V16.581C5.4043 18.744 7.16349 20.5031 9.32648 20.5031H17.1557C19.3187 20.5031 21.0779 18.744 21.0779 16.581V9.41827C21.0779 7.25528 19.3187 5.49609 17.1557 5.49609ZM6.78775 9.41827C6.78775 8.01826 7.92647 6.87954 9.32648 6.87954H17.1557C18.5557 6.87954 19.6944 8.01826 19.6944 9.41827V16.581C19.6944 17.981 18.5557 19.1197 17.1557 19.1197H9.32648C7.92647 19.1197 6.78775 17.981 6.78775 16.581V9.41827Z" fill="#1D1E21"/>
<path d="M13.2404 16.6484C15.2523 16.6484 16.8891 15.0116 16.8891 12.9997C16.8891 10.9879 15.2523 9.35107 13.2404 9.35107C11.2286 9.35107 9.5918 10.9879 9.5918 12.9997C9.5918 15.0116 11.2286 16.6484 13.2404 16.6484ZM13.2404 10.7352C14.4893 10.7352 15.5049 11.7509 15.5049 12.9997C15.5049 14.2486 14.4893 15.2642 13.2404 15.2642C11.9916 15.2642 10.976 14.2486 10.976 12.9997C10.976 11.7509 11.9916 10.7352 13.2404 10.7352Z" fill="#1D1E21"/>
<path d="M17.2274 9.94012C17.7694 9.94012 18.2106 9.49888 18.2106 8.95688C18.2106 8.41487 17.7694 7.97363 17.2274 7.97363C16.6854 7.97363 16.2441 8.41487 16.2441 8.95688C16.2441 9.49888 16.6854 9.94012 17.2274 9.94012Z" fill="#1D1E21"/>
</svg>
