<svg width="26" height="26" viewBox="0 0 26 26" fill="none" xmlns="http://www.w3.org/2000/svg">
<path d="M25.7405 13.0004C25.7405 19.3135 21.0605 24.5326 14.9813 25.3798C14.4126 25.459 13.8311 25.5 13.2409 25.5C12.5592 25.5 11.8905 25.4453 11.2384 25.3402C5.28732 24.3822 0.741211 19.2214 0.741211 12.9996C0.741211 6.09626 6.33748 0.5 13.2409 0.5C20.1442 0.5 25.7405 6.09626 25.7405 12.9996V13.0004Z" fill="white"/>
<path d="M19.3574 9.50278V11.891C18.9392 11.8507 18.3979 11.7557 17.7969 11.5354C17.0131 11.2482 16.4293 10.8552 16.0479 10.5508V15.379L16.0385 15.3639C16.045 15.4596 16.0479 15.5568 16.0479 15.6554C16.0479 18.0537 14.0973 20.005 11.6982 20.005C9.29922 20.005 7.34863 18.053 7.34863 15.6554C7.34863 13.2579 9.29922 11.3051 11.6982 11.3051C11.9329 11.3051 12.1632 11.3238 12.3885 11.3598V13.7142C12.1718 13.6365 11.9401 13.5947 11.6982 13.5947C10.5624 13.5947 9.63752 14.5189 9.63752 15.6554C9.63752 16.792 10.5624 17.7161 11.6982 17.7161C12.834 17.7161 13.759 16.7912 13.759 15.6554C13.759 15.613 13.7582 15.5705 13.7554 15.528V6.14502H16.1429C16.1515 6.34728 16.1601 6.55097 16.168 6.75323C16.1839 7.15127 16.3257 7.53347 16.5726 7.84657C16.8626 8.21438 17.2902 8.64192 17.8919 8.9831C18.4548 9.30196 18.9831 9.43872 19.3574 9.5035V9.50278Z" fill="#1D1E21"/>
</svg>
