<svg width="26" height="26" viewBox="0 0 26 26" fill="none" xmlns="http://www.w3.org/2000/svg">
<path d="M25.7412 12.9996C25.7412 19.3128 21.0612 24.5319 14.982 25.3791C14.4134 25.4583 13.8318 25.4993 13.2416 25.4993C12.5599 25.4993 11.8913 25.4446 11.2392 25.3395C5.2866 24.3815 0.741211 19.2214 0.741211 12.9996C0.741211 6.09627 6.33748 0.5 13.2409 0.5C20.1442 0.5 25.7405 6.09627 25.7405 12.9996H25.7412Z" fill="white"/>
<path d="M14.9822 10.5363V13.2593H18.3508L17.8174 16.928H14.9822V25.3796C14.4136 25.4588 13.832 25.4998 13.2418 25.4998C12.5602 25.4998 11.8915 25.4451 11.2394 25.34V16.928H8.13281V13.2593H11.2394V9.92813C11.2394 7.86093 12.915 6.18457 14.9829 6.18457V6.18673C14.9887 6.18673 14.9944 6.18457 15.0002 6.18457H18.3515V9.35663H16.1619C15.5105 9.35663 14.9829 9.88422 14.9829 10.5356L14.9822 10.5363Z" fill="#1D1E21"/>
</svg>
