<svg width="36" height="36" viewBox="0 0 36 36" fill="none" xmlns="http://www.w3.org/2000/svg">
<path d="M26.3299 12.7729V9.6701C26.3299 9.21019 25.9575 8.83693 25.4967 8.83693C25.036 8.83693 24.6635 9.21019 24.6635 9.6701V11.6414L20.3285 8.71612C18.913 7.76129 17.0833 7.76129 15.6677 8.71612L9.83549 12.652C8.68654 13.4277 8 14.7183 8 16.1056V23.8341C8 26.1312 9.86882 28 12.1659 28H13.8322C14.293 28 14.6654 27.6267 14.6654 27.1668V19.6682C14.6654 19.2091 15.0387 18.8351 15.4986 18.8351H20.4977C20.9576 18.8351 21.3308 19.2091 21.3308 19.6682V27.1668C21.3308 27.6267 21.7033 28 22.164 28H23.8304C26.1274 28 27.9963 26.1312 27.9963 23.8341V16.1056C27.9963 14.7883 27.3764 13.5577 26.3299 12.7729Z" fill="#2E71EB"/>
</svg>
