<svg width="20" height="20" viewBox="0 0 20 20" fill="none" xmlns="http://www.w3.org/2000/svg">
<g clip-path="url(#clip0_488_16850)">
<path d="M10.9875 13.3333H9.0125C8.5725 13.334 8.14363 13.195 7.78766 12.9364C7.43169 12.6778 7.16699 12.3128 7.03167 11.8942L6.42167 10.0167C6.28382 9.59778 6.28284 9.14589 6.41887 8.7264C6.55491 8.30692 6.82089 7.94161 7.17834 7.68333L8.775 6.52667C9.13041 6.26715 9.5591 6.12729 9.99917 6.12729C10.4392 6.12729 10.8679 6.26715 11.2233 6.52667L12.8208 7.68667C13.1784 7.94485 13.4444 8.31016 13.5805 8.72968C13.7165 9.14919 13.7155 9.60112 13.5775 10.02L12.9683 11.8975C12.8318 12.3151 12.5666 12.6789 12.2109 12.9368C11.8551 13.1947 11.4269 13.3335 10.9875 13.3333ZM20 10C20 11.9778 19.4135 13.9112 18.3147 15.5557C17.2159 17.2002 15.6541 18.4819 13.8268 19.2388C11.9996 19.9957 9.98891 20.1937 8.0491 19.8079C6.10929 19.422 4.32746 18.4696 2.92894 17.0711C1.53041 15.6725 0.578004 13.8907 0.192152 11.9509C-0.193701 10.0111 0.00433286 8.00043 0.761209 6.17317C1.51809 4.3459 2.79981 2.78412 4.4443 1.6853C6.08879 0.58649 8.02219 0 10 0C12.6513 0.00286757 15.1932 1.05736 17.0679 2.9321C18.9426 4.80684 19.9971 7.34872 20 10ZM10 17.5C10.4315 17.4975 10.862 17.4579 11.2867 17.3817L11.9933 15.0642C12.1537 14.5606 12.4699 14.1211 12.8964 13.8089C13.3228 13.4968 13.8374 13.3282 14.3658 13.3275L16.7133 13.3233C17.0913 12.565 17.3367 11.7477 17.4392 10.9067L15.5658 9.65667C15.1335 9.35323 14.8087 8.92034 14.6383 8.42041C14.4678 7.92047 14.4606 7.37933 14.6175 6.875L15.3283 4.73083C14.7324 4.13169 14.04 3.63702 13.28 3.2675L11.47 4.5225C11.0431 4.83392 10.5284 5.00173 10 5.00173C9.47161 5.00173 8.95687 4.83392 8.53 4.5225L6.76834 3.2425C6.01995 3.60002 5.33574 4.07868 4.74334 4.65917L5.3825 6.87333C5.53944 7.37767 5.53217 7.91881 5.36173 8.41874C5.19129 8.91867 4.8665 9.35156 4.43417 9.655L2.5725 10.9842C2.67956 11.798 2.92089 12.5885 3.28667 13.3233L5.63334 13.3275C6.16184 13.328 6.67653 13.4963 7.10311 13.8083C7.5297 14.1203 7.84611 14.5598 8.00667 15.0633L8.7275 17.3833C9.14754 17.4586 9.57328 17.4977 10 17.5Z" fill="#1D1E21"/>
</g>
<defs>
<clipPath id="clip0_488_16850">
<rect width="20" height="20" fill="white"/>
</clipPath>
</defs>
</svg>
