<svg width="21" height="24" viewBox="0 0 21 24" fill="none" xmlns="http://www.w3.org/2000/svg">
<path d="M13.5417 21.2507C13.689 21.2517 13.8324 21.2997 13.9511 21.3881L13.9511 21.3881L13.9568 21.3922C14.0724 21.4758 14.1586 21.5943 14.2025 21.7308L14.5105 22.8916L14.5999 23.2286L14.9471 23.2612C15.1739 23.2824 15.4022 23.2832 15.6291 23.2633C15.8579 23.2622 16.0861 23.2404 16.311 23.198L16.6086 23.1419L16.6967 22.8522L17.0345 21.7417C17.0809 21.6001 17.1698 21.4767 17.2888 21.3884L17.2893 21.3881C17.408 21.2997 17.5514 21.2517 17.6987 21.2507H18.8277H19.1264L19.268 20.9876C19.4819 20.59 19.6327 20.1614 19.7149 19.7173L19.7743 19.3969L19.505 19.2132L18.5682 18.5742C18.4494 18.488 18.36 18.3665 18.3128 18.2265C18.2655 18.0863 18.2631 17.9348 18.3058 17.7931L18.6432 16.7684L18.7378 16.481L18.5271 16.2638C18.2152 15.9424 17.8534 15.6738 17.4556 15.4685L17.1876 15.3301L16.9402 15.5028L16.0735 16.1075L16.0735 16.1075L16.0684 16.1111C15.9471 16.1981 15.8019 16.2447 15.6532 16.2447C15.5053 16.2447 15.361 16.1986 15.2402 16.1127L14.3952 15.4911L14.1461 15.3079L13.8708 15.4489C13.4754 15.6516 13.1145 15.9159 12.8016 16.2319L12.596 16.4395L12.676 16.7206L12.9775 17.7789L12.9804 17.7893L12.9838 17.7995C13.0303 17.9395 13.0303 18.0909 12.9838 18.2309L12.9838 18.2309L12.9812 18.239C12.9389 18.3742 12.8521 18.4907 12.7355 18.5696L12.7355 18.5696L12.7339 18.5707L11.7919 19.2132L11.5358 19.3879L11.5784 19.6949C11.64 20.1402 11.774 20.5724 11.9749 20.9743L12.1131 21.2507H12.4222H13.5417ZM14.848 20.1973L14.8413 20.1923L14.8344 20.1876C14.7522 20.131 14.6912 20.048 14.6616 19.9518L14.6617 19.9518L14.6592 19.944L14.3671 19.0464L14.367 19.0458C14.3337 18.9441 14.3337 18.8344 14.367 18.7326L14.367 18.7327L14.3696 18.7243C14.3992 18.6281 14.4602 18.5451 14.5424 18.4886L14.5483 18.4845L14.554 18.4803L15.317 17.9228L15.3262 17.9161L15.3351 17.909C15.4136 17.846 15.5108 17.8118 15.6108 17.8118C15.7108 17.8118 15.808 17.846 15.8864 17.909L15.8953 17.9161L15.9046 17.9228L16.6676 18.4803L16.6733 18.4845L16.6791 18.4886C16.7614 18.5451 16.8224 18.6281 16.852 18.7243L16.8519 18.7244L16.8546 18.7326C16.8878 18.8344 16.8878 18.9441 16.8546 19.0458L16.8544 19.0464L16.5624 19.944L16.5624 19.944L16.56 19.9518C16.5304 20.048 16.4694 20.131 16.3871 20.1876L16.3803 20.1923L16.3736 20.1972C16.2866 20.2614 16.182 20.2966 16.0744 20.298H15.1406C15.0353 20.2952 14.9332 20.2601 14.848 20.1973ZM19.2868 16.9962C19.6853 17.6623 19.8974 18.4239 19.9007 19.2008C19.8971 20.0509 19.6445 20.8812 19.1746 21.5884C18.7017 22.2971 18.0301 22.8489 17.2448 23.1743C16.4595 23.4996 15.5956 23.5839 14.7626 23.4165L14.7606 23.4161C13.927 23.2522 13.1608 22.8428 12.5599 22.24C11.9589 21.6372 11.5504 20.8682 11.3869 20.0312L11.3869 20.0312L11.3861 20.0273C11.2162 19.1933 11.3013 18.3274 11.6302 17.5429C11.9607 16.7598 12.5127 16.0914 13.2177 15.6201C13.8655 15.189 14.6175 14.942 15.3937 14.9052C16.1702 14.8684 16.9421 15.0433 17.6275 15.4114C18.313 15.7795 18.8864 16.3271 19.2868 16.9962Z" fill="#2E71EB" stroke="#2E71EB"/>
<path d="M9.89996 10.8008V12.1781C9.90079 12.2226 9.89306 12.2667 9.87728 12.3075C9.8615 12.3483 9.83805 12.3848 9.80855 12.4145C9.7664 12.4606 9.71319 12.4918 9.65547 12.5043C9.59774 12.5169 9.53802 12.5102 9.48363 12.4851C9.42925 12.46 9.38258 12.4175 9.34935 12.363C9.31613 12.3084 9.29781 12.2442 9.29664 12.1781V10.8008H0V15.6008C0.00241507 16.873 0.452954 18.0923 1.25302 18.9919C2.05308 19.8915 3.1375 20.3981 4.26896 20.4008H12.3864C12.3091 20.1576 12.2539 19.9062 12.2218 19.6505L12.5692 19.3729H4.26896C3.37817 19.3662 2.5251 18.9678 1.89224 18.2629C1.58086 17.9138 1.3341 17.4988 1.16621 17.0419C0.998323 16.585 0.912644 16.0952 0.914124 15.6008V11.8286H8.38251V12.1781C8.38056 12.3579 8.41116 12.5363 8.47245 12.7024C8.53374 12.8685 8.62444 13.0188 8.73902 13.1443C8.97143 13.3907 9.27883 13.528 9.5983 13.528C9.91777 13.528 10.2252 13.3907 10.4576 13.1443C10.6856 12.8881 10.8139 12.5405 10.8141 12.1781V11.8286H18.2825V15.6008C18.2964 15.7683 18.2964 15.9369 18.2825 16.1044C18.2869 16.1557 18.2869 16.2073 18.2825 16.2586C18.2195 16.6821 18.0895 17.0894 17.8985 17.4612C17.8205 17.7247 17.8205 18.0096 17.8985 18.2732C17.9523 18.4552 18.0431 18.6206 18.1636 18.7562L18.2459 18.6637L18.2825 18.6021C18.8002 17.8777 19.118 16.9987 19.1966 16.0736C19.1966 16.0119 19.1966 15.9502 19.1966 15.8886C19.2011 15.827 19.2011 15.7651 19.1966 15.7036V10.8008H9.89996ZM17.2769 18.2834C17.2507 18.3163 17.2198 18.3441 17.1855 18.3657C17.1598 18.4049 17.129 18.4396 17.0941 18.4684C16.4884 19.0458 15.7217 19.3659 14.9276 19.3729H14.0775L14.2969 20.1233C14.3254 20.2213 14.3653 20.3146 14.4157 20.4008H14.9276C15.6146 20.3948 16.2907 20.2082 16.9021 19.856L17.0575 19.7532L17.2038 19.6505L17.3501 19.1468C17.4143 18.9265 17.4143 18.6888 17.3501 18.4684C17.3312 18.4042 17.3067 18.3422 17.2769 18.2834Z" fill="#2E71EB"/>
<path d="M15.3234 3.2214H14.4334C14.245 2.31258 13.7497 1.49622 13.0307 0.909357C12.3139 0.319983 11.4144 -0.0015262 10.4864 1.62842e-05H8.87091C7.9419 -0.00262866 7.04072 0.317003 6.32099 0.904426C5.60127 1.49185 5.10754 2.3107 4.92398 3.2214H4.03399C2.9649 3.22396 1.94032 3.64979 1.18435 4.40576C0.428384 5.16172 0.0025546 6.1863 0 7.2554V9.67386H19.3477V7.2554C19.3451 6.18797 18.9206 5.16485 18.1668 4.40916C17.4129 3.65346 16.3908 3.22651 15.3234 3.2214ZM6.61691 3.2214C6.7846 2.75346 7.09188 2.34827 7.49722 2.06054C7.89827 1.7741 8.37808 1.61866 8.87091 1.61555H10.4864C10.9827 1.61602 11.4664 1.77161 11.8698 2.06054C12.2751 2.34827 12.5824 2.75346 12.7501 3.2214H6.61691Z" fill="#2E71EB"/>
</svg>
