<svg width="86" height="77" viewBox="0 0 86 77" fill="none" xmlns="http://www.w3.org/2000/svg">
<path d="M77.8128 16.125V59.9531H47.2049L44.3747 54.4746L41.5911 48.9961L38.8075 43.5519L36.0239 38.0734L38.8075 32.5949L41.5911 27.1164L44.3747 21.6608L47.2049 16.1594L77.8128 16.125ZM49.9652 21.6264L47.2049 27.082L44.3747 32.5605L41.5911 38.039L44.3747 43.5519L47.1583 49.0304L49.9419 54.509H72.2107V21.6264H49.9652Z" fill="#2E71EB"/>
<path d="M30.6312 16.125L33.4148 21.6035L36.1984 27.082L38.982 32.5605L41.7656 38.039L38.982 43.5519L36.1984 49.0304L33.4148 54.509L30.6312 59.9531H0V16.125H30.6312ZM5.56719 21.6264V54.4975H27.8476L30.6312 49.019L33.4148 43.5519L36.1984 38.0734L33.4148 32.5949L30.6312 27.1049L27.8476 21.6264H5.56719Z" fill="#2E71EB"/>
<path d="M85.2197 0H79.5942V5.27221H85.2197V0Z" fill="#FF7F00"/>
<path d="M62.2526 64.8242H15.9797C14.1593 64.8242 12.6836 66.2764 12.6836 68.0678V72.7554C12.6836 74.5468 14.1593 75.999 15.9797 75.999H62.2526C64.073 75.999 65.5486 74.5468 65.5486 72.7554V68.0678C65.5486 66.2764 64.073 64.8242 62.2526 64.8242Z" stroke="#2E71EB" stroke-width="0.25" stroke-miterlimit="10"/>
<path d="M30.9451 73.2142C30.6175 73.2234 30.2942 73.1399 30.0134 72.9735C29.7459 72.8229 29.5277 72.6002 29.3845 72.3317C29.2286 72.0295 29.1449 71.6963 29.1399 71.3575H29.3146V73.0881H28.8604V67.6211H29.431V70.3489L29.2098 70.8532C29.2073 70.4975 29.2954 70.1468 29.466 69.8331C29.6084 69.5708 29.8221 69.3525 30.0833 69.2028C30.3574 69.0533 30.6668 68.9782 30.9801 68.985C31.2563 68.984 31.5297 69.0386 31.7837 69.1455C32.016 69.2549 32.2223 69.4111 32.3893 69.6039C32.566 69.7903 32.6974 70.0136 32.7737 70.2572C32.868 70.5065 32.9154 70.7706 32.9135 71.0366V71.1397C32.9131 71.4055 32.8658 71.6692 32.7737 71.9191C32.6861 72.1635 32.5516 72.3892 32.3777 72.5838C32.2088 72.7796 31.998 72.9361 31.7604 73.0423C31.5053 73.1595 31.2266 73.2182 30.9451 73.2142ZM30.8753 72.7214C31.1551 72.7259 31.4303 72.6502 31.6672 72.5036C31.8816 72.3534 32.0539 72.1524 32.1681 71.9191C32.2861 71.6596 32.3457 71.3781 32.3428 71.0939C32.348 70.8094 32.2883 70.5274 32.1681 70.2687C32.0556 70.0339 31.8779 69.8352 31.6556 69.6956C31.4246 69.5454 31.152 69.4693 30.8753 69.4778C30.6155 69.4801 30.3601 69.5429 30.1299 69.6612C29.9098 69.7766 29.7279 69.9516 29.6057 70.1655C29.4711 70.3994 29.4027 70.6646 29.4078 70.9334V71.3002C29.4038 71.558 29.4723 71.8118 29.6057 72.0337C29.7313 72.245 29.9123 72.4192 30.1299 72.538C30.3601 72.6563 30.6155 72.7191 30.8753 72.7214Z" fill="#2E71EB"/>
<path d="M37.2699 73.2154C36.9605 73.2236 36.6534 73.1609 36.3731 73.032C36.1328 72.9249 35.9214 72.764 35.7558 72.5621C35.5885 72.3685 35.4654 72.1418 35.3947 71.8973C35.3108 71.6536 35.2675 71.3982 35.2666 71.1409V71.0606C35.2684 70.8072 35.3116 70.5556 35.3947 70.3157C35.4661 70.069 35.5889 69.8397 35.7553 69.6423C35.9218 69.445 36.1282 69.284 36.3614 69.1695C36.6322 69.0501 36.9266 68.9914 37.2233 68.9976C37.5966 68.9827 37.9659 69.0785 38.2831 69.2727C38.5547 69.4486 38.7722 69.6944 38.9121 69.9833C39.0615 70.2704 39.1374 70.5891 39.1334 70.9116V71.1982H35.5345V70.7627H38.7374L38.586 70.9804C38.5933 70.7166 38.5416 70.4545 38.4345 70.2125C38.3419 69.995 38.1833 69.8108 37.9803 69.6853C37.8134 69.5755 37.6237 69.5038 37.425 69.4752C37.2264 69.4466 37.0237 69.462 36.8319 69.5202C36.64 69.5784 36.4637 69.6779 36.3159 69.8115C36.168 69.9452 36.0523 70.1096 35.9771 70.2927C35.869 70.5505 35.8174 70.8278 35.8256 71.1065C35.8198 71.385 35.8713 71.6618 35.9771 71.9202C36.0752 72.1597 36.2409 72.3665 36.4546 72.5162C36.6993 72.6647 36.9824 72.7403 37.2699 72.734C37.576 72.7473 37.8783 72.6629 38.1317 72.4933C38.3283 72.3593 38.469 72.1598 38.5277 71.9317H39.0635C39.0167 72.1837 38.9071 72.4204 38.7445 72.6204C38.5819 72.8205 38.3713 72.9776 38.1317 73.0778C37.8565 73.1793 37.5636 73.226 37.2699 73.2154Z" fill="#2E71EB"/>
<path d="M41.1255 69.5484V69.1243H43.8509V69.5484H41.1255ZM43.2103 73.1357C42.9636 73.14 42.7183 73.0972 42.4882 73.0097C42.2868 72.9283 42.1187 72.7831 42.0106 72.5971C41.8921 72.3585 41.836 72.0945 41.8476 71.8292V67.875H42.395V71.9094C42.3865 72.1021 42.4532 72.2907 42.5813 72.4366C42.6556 72.5015 42.7422 72.5512 42.8362 72.5827C42.9302 72.6142 43.0297 72.6268 43.1287 72.62H43.8509V73.1357H43.2103Z" fill="#2E71EB"/>
<path d="M47.5543 73.1911C47.2943 73.1927 47.0367 73.142 46.7973 73.0421C46.5895 72.9453 46.4124 72.7947 46.2848 72.6066C46.1644 72.3971 46.104 72.1595 46.1101 71.9189C46.099 71.6799 46.1641 71.4434 46.2965 71.2427C46.4276 71.0515 46.6143 70.9037 46.8322 70.8186C47.1061 70.7115 47.3995 70.6608 47.6941 70.6696H48.8588V71.0593H47.6941C47.4288 71.0414 47.1665 71.1233 46.9603 71.2885C46.8761 71.3635 46.8096 71.4557 46.7653 71.5587C46.721 71.6616 46.7002 71.7728 46.7041 71.8845C46.6972 71.9977 46.7179 72.1108 46.7645 72.2145C46.8111 72.3182 46.8823 72.4094 46.972 72.4805C47.1762 72.641 47.433 72.7226 47.6941 72.7097C47.8778 72.7098 48.0597 72.6747 48.2298 72.6066C48.4045 72.5359 48.5543 72.4163 48.6608 72.2627C48.7901 72.0601 48.8587 71.8258 48.8588 71.5865L49.0218 71.8158C49.0099 72.0765 48.9382 72.3311 48.8122 72.5607C48.6898 72.7519 48.5166 72.9065 48.3114 73.0077C48.0764 73.1246 47.8175 73.1873 47.5543 73.1911ZM48.917 73.088V71.9418H48.8238V70.4862C48.8335 70.363 48.8167 70.239 48.7746 70.1226C48.7324 70.0061 48.6659 69.8996 48.5792 69.81C48.4821 69.7233 48.3679 69.6571 48.2437 69.6157C48.1194 69.5743 47.9878 69.5585 47.8571 69.5693H46.9487H46.5876V69.0765H46.9254H47.2864H47.6475C47.9842 69.0625 48.3204 69.1131 48.6375 69.2255C48.8759 69.3097 49.0748 69.4768 49.1965 69.6954C49.3244 69.9557 49.3844 70.2433 49.3712 70.5321V73.088H48.917Z" fill="#2E71EB"/>
</svg>
