<svg id="Calque_1" data-name="Calque 1" xmlns="http://www.w3.org/2000/svg" viewBox="0 0 73.17 52.31"><defs><style>.cls-1{fill:#fff;}.cls-2{fill:#ff7f00;}</style></defs><g id="Layer_2" data-name="Layer 2"><g id="Layer_1-2" data-name="Layer 1-2"><path class="cls-1" d="M66.81,19.94V58.18H40.53L38.1,53.4l-2.39-4.78-2.39-4.75-2.39-4.78,2.39-4.78,2.39-4.78,2.39-4.76L40.53,20ZM42.9,24.74,40.53,29.5,38.1,34.28l-2.39,4.78,2.39,4.81,2.39,4.78,2.39,4.78H62V24.74Z" transform="translate(0 -5.87)"/><path class="cls-1" d="M26.3,19.94l2.39,4.78,2.39,4.78,2.39,4.78,2.39,4.79-2.39,4.8-2.39,4.78-2.39,4.78L26.3,58.18H0V19.94ZM4.78,24.74V53.42H23.91l2.39-4.78,2.39-4.77,2.39-4.78-2.39-4.78L26.3,29.52l-2.39-4.78Z" transform="translate(0 -5.87)"/><path class="cls-2" d="M73.17,5.87H68.34v4.6h4.83Z" transform="translate(0 -5.87)"/></g></g></svg>