<svg xmlns="http://www.w3.org/2000/svg" xmlns:xlink="http://www.w3.org/1999/xlink" viewBox="0 0 209 52.31"><defs><style>.cls-1,.cls-5{fill:none;}.cls-2{clip-path:url(#clip-path);}.cls-3{fill:#fff;}.cls-4{fill:#ff7f00;}.cls-5{stroke:#fff;stroke-width:0.73px;}</style><clipPath id="clip-path"><rect class="cls-1" width="209" height="52.31"/></clipPath></defs><g id="Layer_2" data-name="Layer 2"><g id="Layer_1-2" data-name="Layer 1"><g class="cls-2"><path class="cls-3" d="M66.81,14.07V52.31H40.53L38.1,47.53l-2.39-4.78L33.32,38l-2.39-4.78,2.39-4.78,2.39-4.78,2.39-4.76,2.43-4.8ZM42.9,18.87l-2.37,4.76L38.1,28.41l-2.39,4.78L38.1,38l2.39,4.78,2.39,4.78H62V18.87Z"/><path class="cls-3" d="M26.3,14.07l2.39,4.78,2.39,4.78,2.39,4.78,2.39,4.78L33.47,38l-2.39,4.78-2.39,4.78L26.3,52.31H0V14.07ZM4.78,18.87V47.55H23.91l2.39-4.78L28.69,38l2.39-4.78-2.39-4.78L26.3,23.65l-2.39-4.78Z"/><path class="cls-4" d="M73.17,0H68.34V4.6h4.83Z"/><path class="cls-3" d="M80.58,29.11a6.67,6.67,0,0,1-3-.6A6.18,6.18,0,0,1,75.57,27a7.13,7.13,0,0,1-1.22-2.1,6.67,6.67,0,0,1-.4-2.17V22.3A6.66,6.66,0,0,1,74.36,20a6.13,6.13,0,0,1,1.29-2.11,6.28,6.28,0,0,1,2-1.44,7.83,7.83,0,0,1,5.79,0A6.11,6.11,0,0,1,86.77,20a6.66,6.66,0,0,1,.41,2.29v.38a6.41,6.41,0,0,1-.4,2.17A6.8,6.8,0,0,1,85.56,27a6.18,6.18,0,0,1-2.06,1.56A6.57,6.57,0,0,1,80.58,29.11Zm0-2.26a4.11,4.11,0,0,0,1.72-.35,3.73,3.73,0,0,0,1.3-1,4.4,4.4,0,0,0,.83-1.4,4.85,4.85,0,0,0,.28-1.65,5.06,5.06,0,0,0-.28-1.73,4,4,0,0,0-.83-1.38,3.77,3.77,0,0,0-1.31-.91,4.77,4.77,0,0,0-3.45,0,3.86,3.86,0,0,0-1.31.91,4,4,0,0,0-.83,1.38,5.31,5.31,0,0,0-.28,1.73,4.89,4.89,0,0,0,.28,1.65,4.4,4.4,0,0,0,.83,1.4,3.77,3.77,0,0,0,1.31,1A4.17,4.17,0,0,0,80.58,26.85Z"/><path class="cls-3" d="M89.53,28.86V16.18H92V28.86Zm2.09,0V26.59h2.59a4.74,4.74,0,0,0,1.75-.3,3.46,3.46,0,0,0,1.29-.85,3.88,3.88,0,0,0,.82-1.29,4.67,4.67,0,0,0,.28-1.66,4.84,4.84,0,0,0-.28-1.69,3.69,3.69,0,0,0-.82-1.28,3.54,3.54,0,0,0-1.29-.8,5.26,5.26,0,0,0-1.75-.28H91.62V16.18h2.43a8.07,8.07,0,0,1,3,.48A5.81,5.81,0,0,1,99.12,18a5.69,5.69,0,0,1,1.27,2,6.4,6.4,0,0,1,.41,2.29v.38a6.33,6.33,0,0,1-.41,2.23A6,6,0,0,1,97,28.29a7.68,7.68,0,0,1-3,.53Z"/><path class="cls-3" d="M103.06,28.79V16.26h2.42V28.79Z"/><path class="cls-3" d="M108.59,28.79V16.26h4l5.27,10.5h.56l-.34.31V16.26h2.3V28.79h-4l-5.27-10.5h-.58l.35-.31V28.79Z"/><path class="cls-3" d="M74.69,49.4V36.85h2.39V49.4Zm2-10.47v-2h5.54v2Zm0,5.14V42H82v2.06Zm0,5.33V47.32h5.68V49.4Z"/><path class="cls-3" d="M89.08,49.7a6.56,6.56,0,0,1-2.8-.53,4,4,0,0,1-1.74-1.45,3.81,3.81,0,0,1-.6-2.12h2.38a1.85,1.85,0,0,0,.28,1,1.82,1.82,0,0,0,.88.76,3.53,3.53,0,0,0,1.6.29,3.85,3.85,0,0,0,1.5-.25,2.13,2.13,0,0,0,.89-.68,1.61,1.61,0,0,0,.29-1,1.31,1.31,0,0,0-.15-.61,1.24,1.24,0,0,0-.41-.47,3.74,3.74,0,0,0-1.75-.48l-1.1-.09A4.76,4.76,0,0,1,85.47,43a3.44,3.44,0,0,1-.82-1.17,3.34,3.34,0,0,1-.25-1.4,3.65,3.65,0,0,1,.55-2A3.59,3.59,0,0,1,86.55,37a6.25,6.25,0,0,1,4.85,0,3.8,3.8,0,0,1,1.6,1.4,3.92,3.92,0,0,1,.56,2.12H91.18a1.92,1.92,0,0,0-.25-1,1.85,1.85,0,0,0-.74-.7A2.42,2.42,0,0,0,89,38.57a2.71,2.71,0,0,0-1.2.24,1.76,1.76,0,0,0-.73.65,1.74,1.74,0,0,0-.23.89,1.35,1.35,0,0,0,.1.56,1.86,1.86,0,0,0,.32.47,2,2,0,0,0,1.36.48l1.1.1a7.36,7.36,0,0,1,2.35.57,3.78,3.78,0,0,1,1.57,1.26,3.13,3.13,0,0,1,.55,1.9,3.57,3.57,0,0,1-.61,2.08,4,4,0,0,1-1.76,1.4A6.53,6.53,0,0,1,89.08,49.7Z"/><path class="cls-3" d="M96.38,49.4V36.8H98.8V49.4Zm2.09-3.84V43.45h2.42a2.61,2.61,0,0,0,1.25-.29,1.94,1.94,0,0,0,.77-.81,2.82,2.82,0,0,0,.26-1.18,2.86,2.86,0,0,0-.26-1.19,1.84,1.84,0,0,0-.77-.79,2.61,2.61,0,0,0-1.25-.29H98.47V36.79h2.23a6.31,6.31,0,0,1,2.68.51,3.81,3.81,0,0,1,1.69,1.46,4.24,4.24,0,0,1,.59,2.25v.28a4.24,4.24,0,0,1-.59,2.25A3.79,3.79,0,0,1,103.38,45a6.17,6.17,0,0,1-2.68.52Z"/><path class="cls-3" d="M113.55,49.7a6.63,6.63,0,0,1-2.94-.6,6.08,6.08,0,0,1-2.06-1.57,6.87,6.87,0,0,1-1.22-2.09,6.22,6.22,0,0,1-.4-2.17v-.38a6.66,6.66,0,0,1,.41-2.29,6.2,6.2,0,0,1,1.24-2.06,6,6,0,0,1,2.07-1.49,7.71,7.71,0,0,1,5.78,0,6,6,0,0,1,2,1.43,6.08,6.08,0,0,1,1.29,2.12,6.62,6.62,0,0,1,.41,2.29v.38a6.22,6.22,0,0,1-.4,2.17,6.84,6.84,0,0,1-1.21,2.09,6.12,6.12,0,0,1-2.07,1.57A6.51,6.51,0,0,1,113.55,49.7Zm0-2.26a4.23,4.23,0,0,0,1.72-.34,3.93,3.93,0,0,0,1.31-1,4.26,4.26,0,0,0,.82-1.39,4.91,4.91,0,0,0,.29-1.66,5.11,5.11,0,0,0-.29-1.73,4,4,0,0,0-.82-1.37,3.69,3.69,0,0,0-1.31-.91,4.77,4.77,0,0,0-3.45,0,3.77,3.77,0,0,0-1.32.91,4,4,0,0,0-.82,1.37,5.1,5.1,0,0,0-.28,1.73,4.67,4.67,0,0,0,.28,1.66,4.26,4.26,0,0,0,.82,1.39,4,4,0,0,0,1.32,1,4.1,4.1,0,0,0,1.73.36Z"/><path class="cls-3" d="M122.5,49.4V36.8h2.43V49.4Zm1.72-4.18v-2h3.19a2.33,2.33,0,0,0,1.16-.27,2,2,0,0,0,.77-.77,2.37,2.37,0,0,0,.27-1.14,2.43,2.43,0,0,0-.27-1.15,2,2,0,0,0-.77-.77,2.23,2.23,0,0,0-1.16-.27h-3.19V36.79h2.93a6.89,6.89,0,0,1,2.62.45,3.55,3.55,0,0,1,1.71,1.35,4.09,4.09,0,0,1,.6,2.28v.28a4,4,0,0,1-.61,2.28,3.71,3.71,0,0,1-1.71,1.34,7,7,0,0,1-2.61.45Zm5.94,4.18-3.84-5.48h2.73l4,5.48Z"/><path class="cls-3" d="M133.38,39V36.85h9.7V39ZM137,49.4V38.65h2.42V49.4Z"/><rect class="cls-5" x="148.29" y="33.8" width="60.35" height="18.15" rx="4.48"/><path class="cls-3" d="M169.27,46.57a2.76,2.76,0,0,1-1.43-.36,2.59,2.59,0,0,1-1-1,3.6,3.6,0,0,1-.36-1.5h.27v2.67h-.7V37.88H167v4.25l-.33.78a3.37,3.37,0,0,1,.37-1.57,2.46,2.46,0,0,1,.95-1,2.7,2.7,0,0,1,1.37-.34,2.77,2.77,0,0,1,1.23.26,2.9,2.9,0,0,1,.93.69,3,3,0,0,1,.59,1,3.46,3.46,0,0,1,.21,1.21v.16a3.54,3.54,0,0,1-.21,1.21,3.27,3.27,0,0,1-.6,1,2.61,2.61,0,0,1-.95.72A2.83,2.83,0,0,1,169.27,46.57Zm-.1-.77a2.11,2.11,0,0,0,1.2-.33,2.2,2.2,0,0,0,.77-.91,3,3,0,0,0,.27-1.28,2.9,2.9,0,0,0-.28-1.28,2.14,2.14,0,0,0-.78-.9,2.19,2.19,0,0,0-1.18-.32,2.35,2.35,0,0,0-1.14.28,2,2,0,0,0-.81.79,2.25,2.25,0,0,0-.29,1.18v.57a2.22,2.22,0,0,0,.29,1.16,2.12,2.12,0,0,0,.81.76A2.35,2.35,0,0,0,169.17,45.8Zm7.44.77a3.25,3.25,0,0,1-1.37-.27,2.68,2.68,0,0,1-1-.73,3.18,3.18,0,0,1-.56-1,3.86,3.86,0,0,1-.18-1.17V43.2a3.86,3.86,0,0,1,.18-1.17,3,3,0,0,1,.56-1,2.77,2.77,0,0,1,.93-.72,2.91,2.91,0,0,1,1.32-.28,2.8,2.8,0,0,1,1.61.43,2.87,2.87,0,0,1,1,1.1,3.34,3.34,0,0,1,.32,1.44v.45H174v-.68h4.9l-.22.34a2.68,2.68,0,0,0-.25-1.2,1.73,1.73,0,0,0-.7-.81,2.31,2.31,0,0,0-2.33,0,2.23,2.23,0,0,0-.73.9,3.38,3.38,0,0,0-.23,1.27,3.55,3.55,0,0,0,.23,1.28,2.14,2.14,0,0,0,.74.91,2.55,2.55,0,0,0,2.56,0,1.5,1.5,0,0,0,.61-.87h.82a2.34,2.34,0,0,1-.49,1.07,2.64,2.64,0,0,1-.94.69A3.36,3.36,0,0,1,176.61,46.57Zm6.76-.13a3.07,3.07,0,0,1-1.11-.18,1.47,1.47,0,0,1-.72-.63,2.47,2.47,0,0,1-.26-1.21V38.28h.84v6.27a1.12,1.12,0,0,0,.29.82,1.14,1.14,0,0,0,.83.28h1.1v.79Zm-3.19-5.56v-.66h4.16v.66Zm9.57,5.49V44.52h-.14V42.34a1.42,1.42,0,0,0-.36-1.05,1.48,1.48,0,0,0-1.12-.37h-.7l-.68,0-.56,0v-.77l.53,0,.54,0h.56a4.17,4.17,0,0,1,1.51.23,1.62,1.62,0,0,1,.85.73,2.72,2.72,0,0,1,.27,1.31v3.95Zm-2.08.17a2.63,2.63,0,0,1-1.15-.24,1.77,1.77,0,0,1-.78-.67,2,2,0,0,1-.27-1.07,1.87,1.87,0,0,1,.28-1.05,1.76,1.76,0,0,1,.83-.65,3.23,3.23,0,0,1,1.31-.23h1.8v.66h-1.86a1.63,1.63,0,0,0-1.13.36,1.2,1.2,0,0,0-.38.92,1.16,1.16,0,0,0,.41.93,1.65,1.65,0,0,0,1.1.34,2.31,2.31,0,0,0,.83-.15,1.55,1.55,0,0,0,.66-.54,1.84,1.84,0,0,0,.29-1l.26.37a2.51,2.51,0,0,1-.33,1.15,1.76,1.76,0,0,1-.75.68A2.46,2.46,0,0,1,187.67,46.54Z"/></g></g></g></svg>