<svg width="20" height="21" viewBox="0 0 20 21" fill="none" xmlns="http://www.w3.org/2000/svg">
<path d="M10.8342 3.8475C10.8342 3.3875 11.2067 3.01417 11.6675 3.01417H15.0642L13.9892 1.9175C13.6667 1.58833 13.6717 1.06083 14.0008 0.738333C14.3283 0.4175 14.8575 0.420833 15.1792 0.75L16.9933 2.60083C17.3192 2.92583 17.5008 3.365 17.5008 3.83333C17.5008 4.30167 17.3183 4.74167 16.9875 5.0725L15.1792 6.91667C15.0167 7.08333 14.8 7.16667 14.5842 7.16667C14.3733 7.16667 14.1625 7.0875 14.0008 6.92833C13.6717 6.60583 13.6675 6.07833 13.9892 5.74917L15.0375 4.67917H11.6675C11.2067 4.67917 10.8342 4.30583 10.8342 3.84583V3.8475ZM19.2908 7.735C18.8617 7.34417 18.3025 7.14167 17.7258 7.17C17.145 7.19667 16.61 7.44833 16.2308 7.86583L13.28 10.98C13.3067 11.155 13.3342 11.33 13.3342 11.5117C13.3342 13.2475 12.0383 14.7417 10.32 14.9867L6.77667 15.4833C6.32083 15.5483 5.89917 15.2317 5.83417 14.7767C5.76917 14.3208 6.08583 13.8992 6.54083 13.8342L10.0092 13.3483C10.7892 13.2367 11.4658 12.6767 11.6258 11.905C11.8725 10.7175 10.9675 9.6675 9.8225 9.6675H7.5V8.83417H7.81333C9.01917 8.83417 10 7.85333 10 6.6475C10 5.57417 9.23083 4.66667 8.1725 4.49083L5.435 4.03417C5.18333 3.9925 5.00083 3.77667 5.00083 3.52083C5.00083 3.23417 5.23417 3.00083 5.52083 3.00083H7.72417C8.02083 3.00083 8.2975 3.16083 8.44667 3.4175C8.67583 3.81583 9.18417 3.9525 9.585 3.72167C9.98333 3.49083 10.12 2.98167 9.88833 2.58333C9.44333 1.8125 8.61333 1.33333 7.72333 1.33333H7.5C7.5 0.873333 7.1275 0.5 6.66667 0.5C6.20583 0.5 5.83333 0.873333 5.83333 1.33333H5.52C4.31417 1.33333 3.33333 2.31417 3.33333 3.52C3.33333 4.59333 4.1025 5.50083 5.16083 5.67667L7.89833 6.13333C8.15 6.175 8.3325 6.39083 8.3325 6.64667C8.3325 6.93333 8.09917 7.16667 7.8125 7.16667H5.60917C5.3125 7.16667 5.03583 7.00667 4.88667 6.75C4.6575 6.35083 4.14833 6.21417 3.74833 6.44583C3.35 6.67667 3.21333 7.18583 3.445 7.58417C3.89 8.355 4.72 8.83333 5.61 8.83333H5.83333V9.66667H3.33333C1.4925 9.66667 0 11.1592 0 13V17.1667C0 19.0075 1.4925 20.5 3.33333 20.5H6.885C9.2225 20.5 11.4517 19.5183 13.03 17.795L19.4483 10.7875C20.2383 9.9025 20.1667 8.53167 19.2908 7.73333V7.735Z" fill="#1D1E21"/>
</svg>
