<svg width="21" height="23" viewBox="0 0 21 23" fill="none" xmlns="http://www.w3.org/2000/svg">
<path d="M8.23598 9.58445C7.90059 9.58445 7.5834 9.64865 7.27772 9.74065V7.66794C7.27772 7.13899 7.70702 6.70969 8.23598 6.70969C8.76493 6.70969 9.19423 7.13899 9.19423 7.66794V9.74065C8.88855 9.64865 8.57136 9.58445 8.23598 9.58445ZM8.23598 11.0218C7.1771 11.0218 6.31947 11.8795 6.31947 12.9383C6.31947 13.6455 6.70756 14.2569 7.27772 14.5894V15.334C7.27772 15.8629 7.70702 16.2922 8.23598 16.2922C8.76493 16.2922 9.19423 15.8629 9.19423 15.334V14.5894C9.76439 14.2579 10.1525 13.6465 10.1525 12.9383C10.1525 11.8795 9.29485 11.0218 8.23598 11.0218ZM13.0272 8.41251V7.66794C13.0272 7.13899 12.5979 6.70969 12.069 6.70969C11.54 6.70969 11.1107 7.13899 11.1107 7.66794V8.41251C10.5406 8.74406 10.1525 9.35543 10.1525 10.0636C10.1525 11.1224 11.0101 11.9801 12.069 11.9801C13.1279 11.9801 13.9855 11.1224 13.9855 10.0636C13.9855 9.35639 13.5974 8.74502 13.0272 8.41251ZM11.1107 13.2613V15.334C11.1107 15.8629 11.54 16.2922 12.069 16.2922C12.5979 16.2922 13.0272 15.8629 13.0272 15.334V13.2613C12.7216 13.3533 12.4044 13.4175 12.069 13.4175C11.7336 13.4175 11.4164 13.3533 11.1107 13.2613ZM20.1126 17.2466C19.8462 17.7076 19.3632 17.9663 18.8659 17.9663C18.6225 17.9663 18.3753 17.905 18.1491 17.7746L17.6316 17.4757C16.1588 19.3155 14.0238 20.5948 11.5899 20.9637V21.5626C11.5899 22.3561 10.9469 23 10.1525 23C9.35809 23 8.7151 22.3561 8.7151 21.5626V20.9637C6.2821 20.5948 4.14615 19.3155 2.67331 17.4757L2.15586 17.7746C1.92971 17.905 1.68248 17.9663 1.43908 17.9663C0.94175 17.9663 0.458791 17.7076 0.192396 17.2466C-0.204321 16.5586 0.0323678 15.6799 0.719435 15.2832L1.23593 14.9852C0.811428 13.9033 0.569948 12.7304 0.569948 11.5C0.569948 10.2696 0.811428 9.0967 1.23593 8.01483L0.719435 7.71681C0.0323678 7.3201 -0.204321 6.44138 0.192396 5.75335C0.590071 5.06629 1.46879 4.83151 2.15586 5.22536L2.67331 5.52433C4.14615 3.68448 6.28114 2.40522 8.7151 2.03629V1.43738C8.7151 0.643946 9.35809 0 10.1525 0C10.9469 0 11.5899 0.643946 11.5899 1.43738V2.03629C14.0229 2.40522 16.1588 3.68448 17.6316 5.52433L18.1491 5.22536C18.8381 4.83151 19.7168 5.06629 20.1126 5.75335C20.5093 6.44138 20.2726 7.3201 19.5855 7.71681L19.069 8.01483C19.4935 9.0967 19.735 10.2696 19.735 11.5C19.735 12.7304 19.4935 13.9033 19.069 14.9852L19.5855 15.2832C20.2726 15.6799 20.5093 16.5586 20.1126 17.2466ZM16.8603 11.501C16.8603 7.80306 13.8513 4.79318 10.1525 4.79318C6.45362 4.79318 3.44471 7.80306 3.44471 11.501C3.44471 15.1989 6.45362 18.2087 10.1525 18.2087C13.8513 18.2087 16.8603 15.1989 16.8603 11.501Z" fill="#2E71EB"/>
</svg>
