<svg width="16" height="16" viewBox="0 0 16 16" fill="none" xmlns="http://www.w3.org/2000/svg">
<g clip-path="url(#clip0_3133_71907)">
<path d="M1.2325 12.4487C0.763627 12.9175 0.500142 13.5533 0.5 14.2163L0.5 15.4994H1.78312C2.44611 15.4992 3.08189 15.2357 3.55062 14.7669L11.89 6.4275L9.57187 4.10938L1.2325 12.4487Z" fill="black"/>
<path d="M14.9651 1.03527C14.8129 0.882917 14.6322 0.762055 14.4332 0.679593C14.2343 0.597132 14.0211 0.554688 13.8057 0.554688C13.5904 0.554687 13.3771 0.597132 13.1782 0.679593C12.9793 0.762055 12.7985 0.882917 12.6463 1.03527L10.4551 3.22715L12.7732 5.54527L14.9651 3.35402C15.1174 3.20183 15.2383 3.0211 15.3208 2.82216C15.4032 2.62323 15.4457 2.40999 15.4457 2.19465C15.4457 1.9793 15.4032 1.76606 15.3208 1.56713C15.2383 1.36819 15.1174 1.18746 14.9651 1.03527Z" fill="black"/>
</g>
<defs>
<clipPath id="clip0_3133_71907">
<rect width="15" height="15" fill="black" transform="translate(0.5 0.5)"/>
</clipPath>
</defs>
</svg>
