<svg width="20" height="20" viewBox="0 0 20 20" fill="none" xmlns="http://www.w3.org/2000/svg">
<path d="M2.5 5C2.5 2.2425 4.7425 0 7.5 0C10.2575 0 12.5 2.2425 12.5 5C12.5 7.7575 10.2575 10 7.5 10C4.7425 10 2.5 7.7575 2.5 5ZM18.1033 15.4725L19.6375 16.3558L18.8058 17.8L17.2725 16.9167C16.6842 17.58 15.9008 18.065 15.0008 18.2483V19.9992H13.3342V18.2483C12.4342 18.065 11.65 17.58 11.0625 16.9167L9.52917 17.8L8.6975 16.3558L10.2317 15.4725C10.0942 15.0592 10.0017 14.6258 10.0017 14.1667C10.0017 13.7075 10.0942 13.2742 10.2317 12.8608L8.6975 11.9775L9.52917 10.5333L11.0625 11.4167C11.6508 10.7533 12.4342 10.2683 13.3342 10.085V8.33417H15.0008V10.085C15.9008 10.2683 16.685 10.7533 17.2725 11.4167L18.8058 10.5333L19.6375 11.9775L18.1033 12.8608C18.2408 13.2742 18.3333 13.7075 18.3333 14.1667C18.3333 14.6258 18.2408 15.0592 18.1033 15.4725ZM15.4167 14.1667C15.4167 13.4775 14.8558 12.9167 14.1667 12.9167C13.4775 12.9167 12.9167 13.4775 12.9167 14.1667C12.9167 14.8558 13.4775 15.4167 14.1667 15.4167C14.8558 15.4167 15.4167 14.8558 15.4167 14.1667ZM6.66667 14.1667C6.66667 13.2883 6.825 12.45 7.1025 11.6667H4.16667C1.86917 11.6667 0 13.5358 0 15.8333V20H9.4575C7.75667 18.625 6.66667 16.5242 6.66667 14.1667Z" fill="#2E71EB"/>
</svg>
