<svg width="15" height="21" viewBox="0 0 15 21" fill="none" xmlns="http://www.w3.org/2000/svg">
<g clip-path="url(#clip0_478_8732)">
<path d="M0.000488281 20.1103C0.000488281 18.7304 0.000488281 17.3509 0.000488281 15.9717C0.000488281 13.916 1.36299 12.2504 3.37705 11.8514C3.64559 11.8026 3.9182 11.7798 4.19111 11.7832C6.39736 11.778 8.60327 11.778 10.8088 11.7832C12.9067 11.7879 14.563 13.1728 14.9406 15.2358C14.9817 15.4861 15.0007 15.7395 14.9974 15.9931C15.0026 17.366 14.9974 18.7389 14.9974 20.1119L0.000488281 20.1103Z" fill="#1D1E21"/>
<path d="M8.43266 0.610937C8.7936 0.689062 9.16183 0.740104 9.51391 0.848959C11.6832 1.52604 13.1238 3.61615 12.9972 5.88646C12.8702 8.1724 11.1837 10.1016 8.94412 10.5219C6.13631 11.051 3.45089 9.13229 3.05037 6.31198C2.65454 3.52552 4.63579 0.96927 7.44308 0.642708C7.48726 0.634911 7.53079 0.623769 7.57329 0.609375L8.43266 0.610937Z" fill="#1D1E21"/>
</g>
<defs>
<clipPath id="clip0_478_8732">
<rect width="15.001" height="20" fill="white" transform="translate(0 0.109375)"/>
</clipPath>
</defs>
</svg>
