<svg width="24" height="16" viewBox="0 0 24 16" fill="none" xmlns="http://www.w3.org/2000/svg">
<path d="M5.67708 4.29541C5.92592 4.29563 6.16448 4.39466 6.34033 4.57072L11.1408 9.37117C11.286 9.51647 11.4585 9.63173 11.6483 9.71037C11.8381 9.78901 12.0416 9.82948 12.247 9.82948C12.4525 9.82948 12.6559 9.78901 12.8458 9.71037C13.0356 9.63173 13.208 9.51647 13.3533 9.37117L18.1506 4.57698C18.3276 4.40601 18.5647 4.31141 18.8108 4.31355C19.0569 4.31569 19.2923 4.4144 19.4663 4.58841C19.6403 4.76243 19.739 4.99783 19.7412 5.24392C19.7433 5.49001 19.6487 5.7271 19.4777 5.90411L14.6842 10.6983C14.0383 11.3429 13.163 11.705 12.2505 11.705C11.3379 11.705 10.4627 11.3429 9.81678 10.6983L5.01633 5.89785C4.88517 5.76678 4.79577 5.59979 4.75942 5.41796C4.72307 5.23613 4.7414 5.04761 4.81208 4.87619C4.88277 4.70476 5.00265 4.55812 5.15659 4.45475C5.31054 4.35139 5.49165 4.29594 5.67708 4.29541Z" fill="white"/>
</svg>
