<svg width="20" height="20" viewBox="0 0 20 20" fill="none" xmlns="http://www.w3.org/2000/svg">
<path d="M13.6375 11.8192C13.6375 12.135 13.4175 12.4008 13.1658 12.5408L11.8625 13.2658L12.4408 14.8433C12.5525 15.1492 12.4517 15.4917 12.1917 15.6875C11.9258 15.8875 11.5592 15.885 11.2958 15.6817L9.99917 14.6792L8.7025 15.6817C8.43917 15.885 8.0725 15.8875 7.80667 15.6875C7.54667 15.4917 7.44583 15.1492 7.5575 14.8433L8.13583 13.2658L6.8325 12.5408C6.58083 12.4008 6.36083 12.135 6.36083 11.8192C6.36083 11.5517 6.59333 11.2558 6.97 11.2558H8.8425L9.33917 9.35333C9.4175 9.05167 9.68833 8.84167 9.99917 8.83583C10.31 8.84167 10.5808 9.05167 10.6592 9.35333L11.1558 11.2558H13.0283C13.405 11.2558 13.6375 11.5508 13.6375 11.8192ZM15.4167 1.66667H15V1.25C15 0.559167 14.4408 0 13.75 0C13.0592 0 12.5 0.559167 12.5 1.25V1.66667H7.5V1.25C7.5 0.559167 6.94083 0 6.25 0C5.55917 0 5 0.559167 5 1.25V1.66667H4.58333C2.05583 1.66667 0 3.7225 0 6.25V15.4167C0 17.9442 2.05583 20 4.58333 20H15.4167C17.9442 20 20 17.9442 20 15.4167V6.25C20 3.7225 17.9442 1.66667 15.4167 1.66667ZM15.4167 17.5H4.58333C3.435 17.5 2.5 16.565 2.5 15.4167V7.5H17.5V15.4167C17.5 16.565 16.565 17.5 15.4167 17.5Z" fill="#1D1E21"/>
</svg>
